LG_Stand_to_Walk02																		
version=1																		
nRows=44																		
nColumns=19																		
inDegrees=yes																		
endheader																		
time	ground_force2_vx	ground_force2_vy	ground_force2_vz	ground_force2_px	ground_force2_py	ground_force2_pz	ground_torque2_x	ground_torque2_y	ground_torque2_z	ground_force1_vx	ground_force1_vy	ground_force1_vz	ground_force1_px	ground_force1_py	ground_force1_pz	ground_torque1_x	ground_torque1_y	ground_torque1_z
5.237	-34.620075	327.049683	12.702341	0.191449	0	-0.328167	5.00E-06	0.776502	3.00E-06	0	0	0	-0.13	0	0.305	0	0	0
5.238	-34.703697	327.390625	12.702341	0.191449	0	-0.328649	1.00E-06	0.776502	6.00E-06	0	0	0	-0.13	0	0.305	0	0	0
5.239	-34.775776	327.390625	12.937334	0.191751	0	-0.328781	1.00E-06	0.884945	6.00E-06	0	0	0	-0.13	0	0.305	0	0	0
5.24	-34.937248	327.390625	12.859003	0.191035	0	-0.328781	1.00E-06	0.968369	4.00E-06	0	0	0	-0.13	0	0.305	0	0	0
5.241	-35.012215	328.441345	12.859003	0.191798	0	-0.328451	2.00E-06	0.884945	3.00E-06	0	0	0	-0.13	0	0.305	0	0	0
5.242	-35.012215	326.362671	12.545519	0.19157	0	-0.328451	2.00E-06	0.865637	3.00E-06	0	0	0	-0.13	0	0.305	0	0	0
5.243	-35.012215	327.064331	12.545519	0.19157	0	-0.328451	3.00E-06	0.865637	3.00E-06	0	0	0	-0.13	0	0.305	0	0	0
5.244	-35.247932	327.064331	12.389019	0.19157	0	-0.32762	3.00E-06	0.865637	5.00E-06	0	0	0	-0.13	0	0.305	0	0	0
5.245	-35.247932	327.064331	12.858961	0.191673	0	-0.327472	3.00E-06	0.851097	5.00E-06	0	0	0	-0.13	0	0.305	0	0	0
5.246	-35.247932	326.890015	12.388939	0.191686	0	-0.327449	3.00E-06	0.792	5.00E-06	0	0	0	-0.13	0	0.305	0	0	0
5.247	-35.172966	326.890015	12.859041	0.191686	0	-0.327449	3.00E-06	0.851097	2.00E-06	0	0	0	-0.13	0	0.305	0	0	0
5.248	-34.464375	326.890015	12.780592	0.191686	0	-0.327994	5.00E-06	0.735218	2.00E-06	0	0	0	-0.13	0	0.305	0	0	0
5.249	-34.466537	328.096924	12.780592	0.191828	0	-0.328084	5.00E-06	0.748013	3.00E-06	0	0	0	-0.13	0	0.305	0	0	0
5.25	-34.386524	327.402985	12.702299	0.191902	0	-0.327994	5.00E-06	0.748013	3.00E-06	0	0	0	-0.13	0	0.305	0	0	0
5.251	-34.386524	327.402985	12.702299	0.191902	0	-0.328084	4.00E-06	0.775137	5.00E-06	0	0	0	-0.13	0	0.305	0	0	0
5.252	-34.386524	327.402985	12.702419	0.191902	0	-0.328124	4.00E-06	0.782287	3.00E-06	0	0	0	-0.13	0	0.305	0	0	0
5.253	-34.62368	326.01712	12.937172	0.191476	0	-0.328124	4.00E-06	0.946549	5.00E-06	0	0	0	-0.13	0	0.305	0	0	0
5.254	-34.62368	326.373505	13.407436	0.191238	0	-0.327661	6.00E-06	0.946549	5.00E-06	0	0	0	-0.13	0	0.305	0	0	0
5.255	-34.62368	326.01712	12.937492	0.191238	0	-0.327661	9.00E-06	0.923826	5.00E-06	0	0	0	-0.13	0	0.305	0	0	0
5.256	-34.389408	325.161133	13.329105	0.191238	0	-0.328003	9.00E-06	0.868889	5.00E-06	0	0	0	-0.13	0	0.305	0	0	0
5.257	-34.229378	325.161133	12.937492	0.191943	0	-0.328003	4.00E-06	0.809412	2.00E-06	0	0	0	-0.13	0	0.305	0	0	0
5.258	-34.229378	324.990295	13.329105	0.191038	0	-0.327136	4.00E-06	0.809412	4.00E-06	0	0	0	-0.13	0	0.305	0	0	0
5.259	-34.229378	323.786438	13.485767	0.191314	0	-0.327136	9.00E-06	0.714116	3.00E-06	0	0	0	-0.13	0	0.305	0	0	0
5.26	-33.842285	323.786438	13.642509	0.191314	0	-0.326882	9.00E-06	0.803532	4.00E-06	0	0	0	-0.13	0	0.305	0	0	0
5.261	-33.841568	324.818604	13.642509	0.191916	0	-0.327744	6.00E-06	0.803532	5.00E-06	0	0	0	-0.13	0	0.305	0	0	0
5.262	-33.841568	325.006897	12.937492	0.191979	0	-0.326264	4.00E-06	0.803532	5.00E-06	0	0	0	-0.13	0	0.305	0	0	0
5.263	-33.686584	325.177002	12.937492	0.192019	0	-0.326602	6.00E-06	0.842899	5.00E-06	0	0	0	-0.13	0	0.305	0	0	0
5.264	-33.686584	325.177002	12.937492	0.192019	0	-0.326602	7.00E-06	0.842899	5.00E-06	0	0	0	-0.13	0	0.305	0	0	0
5.265	-33.76516	324.460327	12.780592	0.191542	0	-0.326925	7.00E-06	0.915722	5.00E-06	0	0	0	-0.13	0	0.305	0	0	0
5.266	-33.844452	322.927063	12.702381	0.191226	0	-0.327009	6.00E-06	0.915722	5.00E-06	0	0	0	-0.13	0	0.305	0	0	0
5.267	-33.842285	322.927063	12.780592	0.191498	0	-0.326925	5.00E-06	0.913756	3.00E-06	0	0	0	-0.13	0	0.305	0	0	0
5.268	-33.844452	323.623291	13.015703	0.191498	0	-0.327009	5.00E-06	0.913756	3.00E-06	0	0	0	-0.13	0	0.305	0	0	0
5.269	-33.842285	324.297516	13.329187	0.191498	0	-0.327842	3.00E-06	0.884957	3.00E-06	0	0	0	-0.13	0	0.305	0	0	0
5.27	-33.763714	324.297516	13.250774	0.191778	0	-0.327842	7.00E-06	0.881851	3.00E-06	0	0	0	-0.13	0	0.305	0	0	0
5.271	-33.763714	324.297516	13.329187	0.191778	0	-0.327282	5.00E-06	0.881851	3.00E-06	0	0	0	-0.13	0	0.305	0	0	0
5.272	-33.760105	326.195679	13.720839	0.192	0	-0.327282	5.00E-06	0.788081	3.00E-06	0	0	0	-0.13	0	0.305	0	0	0
5.273	-33.760105	326.195679	13.720839	0.192027	0	-0.327282	5.00E-06	0.748719	1.00E-06	0	0	0	-0.13	0	0.305	0	0	0
5.274	-33.685143	325.862061	13.642668	0.192027	0	-0.328369	7.00E-06	0.748719	1.00E-06	0	0	0	-0.13	0	0.305	0	0	0
5.275	-33.450146	325.848877	13.486048	0.192027	0	-0.327765	7.00E-06	0.748719	5.00E-06	0	0	0	-0.13	0	0.305	0	0	0
5.276	-33.449425	325.171204	13.486048	0.192191	0	-0.327765	7.00E-06	0.829727	5.00E-06	0	0	0	-0.13	0	0.305	0	0	0
5.277	-33.450146	322.740356	13.564299	0.19179	0	-0.327765	5.00E-06	0.829727	4.00E-06	0	0	0	-0.13	0	0.305	0	0	0
5.278	-33.060173	322.740356	13.720839	0.191668	0	-0.32765	8.00E-06	0.86163	4.00E-06	0	0	0	-0.13	0	0.305	0	0	0
5.279	-33.060173	322.394745	13.79929	0.191269	0	-0.328478	8.00E-06	0.86163	4.00E-06	0	0	0	-0.13	0	0.305	0	0	0
5.28	-33.060173	321.375305	13.877621	0.191269	0	-0.32765	9.00E-06	0.86163	4.00E-06	0	0	0	-0.13	0	0.305	0	0	0
